<svg width="22" height="16" viewBox="0 0 22 16" fill="none" xmlns="http://www.w3.org/2000/svg">
<path d="M20.5521 0.228326C15.5231 1.31178 10.8054 4.75914 7.76933 9.57314L6.6483 11.3214L6.30577 10.5335C5.90095 9.61007 5.55842 9.19146 4.65537 8.56355C3.86131 7.98489 3.17624 7.75096 2.27319 7.75096C1.69711 7.75096 1.46356 7.82483 1.01204 8.13263C0.529373 8.47737 0 9.06834 0 9.28996C0 9.3269 0.186838 9.35152 0.435954 9.35152C1.08989 9.36383 2.10192 9.78244 2.53788 10.2257C3.11396 10.8536 3.5032 11.5061 4.14157 12.9959C4.45296 13.7346 4.84221 14.5349 4.99791 14.7811C5.32487 15.2982 6.04108 16 6.22792 16C6.52375 16 7.34894 15.3228 7.98731 14.5472C8.36098 14.0916 9.35745 12.6634 10.1982 11.383C14.0128 5.51017 16.5196 3.02315 20.9258 0.720806C22.4516 -0.0794735 22.3738 -0.165659 20.5521 0.228326Z" fill="#080521"/>
</svg>
